# Blender v2.79 (sub 0) OBJ File: ''
# www.blender.org
mtllib untitled.mtl
o star
v 1.180043 1.603210 0.018649
v -0.040739 0.064342 0.003490
v 0.120218 0.764194 0.226242
v -1.127199 1.515880 0.389733
v -0.691676 0.115568 0.385546
v -1.742051 -0.731286 0.592001
v -0.327034 -0.870414 0.373374
v 0.185191 -2.032777 0.345925
v 0.710217 -0.831154 0.206548
v 1.991145 -0.589979 -0.008427
v 0.986635 0.179089 0.115616
v 0.045688 0.089357 0.542758
v 1.180043 1.603210 0.018649
v -0.040739 0.064342 0.003490
v 0.120218 0.764194 0.226242
v -1.127199 1.515880 0.389733
v -0.691676 0.115568 0.385546
v -1.742051 -0.731286 0.592001
v -0.327034 -0.870414 0.373374
v 0.185191 -2.032777 0.345925
v 0.710217 -0.831154 0.206548
v 1.991145 -0.589979 -0.008427
v 0.986635 0.179089 0.115616
v 0.045688 0.089357 0.542758
v 1.180043 1.603210 0.018649
v -0.040739 0.064342 0.003490
v 0.120218 0.764194 0.226242
v -1.127199 1.515880 0.389733
v -0.691676 0.115568 0.385546
v -1.742051 -0.731286 0.592001
v -0.327034 -0.870414 0.373374
v 0.185191 -2.032777 0.345925
v 0.710217 -0.831154 0.206548
v 1.991145 -0.589979 -0.008427
v 0.986635 0.179089 0.115616
v 0.045688 0.089357 0.542758
vn -0.4475 0.3630 -0.8173
vn 0.0509 0.2922 -0.9550
vn -0.5091 -0.1558 -0.8465
vn -0.4510 0.3602 -0.8166
vn -0.1751 -0.3154 -0.9327
vn -0.4805 -0.1915 -0.8559
vn 0.0855 -0.1516 -0.9847
vn -0.1025 -0.3009 -0.9481
vn 0.0766 0.2555 -0.9638
vn 0.1173 -0.0833 -0.9896
vn 0.4129 0.0059 0.9108
vn 0.3630 0.3339 0.8699
vn 0.1995 -0.2059 0.9580
vn 0.3828 -0.0603 0.9219
vn -0.1804 -0.1026 0.9782
vn 0.1278 -0.2203 0.9670
vn -0.1735 0.4310 0.8855
vn -0.2104 -0.0683 0.9752
vn 0.3361 0.3693 0.8664
vn -0.1701 0.4338 0.8848
usemtl None
s off
f 1//1 2//1 3//1
f 3//2 2//2 4//2
f 4//3 2//3 5//3
f 5//4 2//4 6//4
f 6//5 2//5 7//5
f 7//6 2//6 8//6
f 8//7 2//7 9//7
f 9//8 2//8 10//8
f 10//9 2//9 11//9
f 11//10 2//10 1//10
f 1//11 12//11 11//11
f 11//12 12//12 10//12
f 10//13 12//13 9//13
f 9//14 12//14 8//14
f 8//15 12//15 7//15
f 7//16 12//16 6//16
f 6//17 12//17 5//17
f 5//18 12//18 4//18
f 4//19 12//19 3//19
f 3//20 12//20 1//20
f 13//1 14//1 15//1
f 15//2 14//2 16//2
f 16//3 14//3 17//3
f 17//4 14//4 18//4
f 18//5 14//5 19//5
f 19//6 14//6 20//6
f 20//7 14//7 21//7
f 21//8 14//8 22//8
f 22//9 14//9 23//9
f 23//10 14//10 13//10
f 13//11 24//11 23//11
f 23//12 24//12 22//12
f 22//13 24//13 21//13
f 21//14 24//14 20//14
f 20//15 24//15 19//15
f 19//16 24//16 18//16
f 18//17 24//17 17//17
f 17//18 24//18 16//18
f 16//19 24//19 15//19
f 15//20 24//20 13//20
f 25//1 26//1 27//1
f 27//2 26//2 28//2
f 28//3 26//3 29//3
f 29//4 26//4 30//4
f 30//5 26//5 31//5
f 31//6 26//6 32//6
f 32//7 26//7 33//7
f 33//8 26//8 34//8
f 34//9 26//9 35//9
f 35//10 26//10 25//10
f 25//11 36//11 35//11
f 35//12 36//12 34//12
f 34//13 36//13 33//13
f 33//14 36//14 32//14
f 32//15 36//15 31//15
f 31//16 36//16 30//16
f 30//17 36//17 29//17
f 29//18 36//18 28//18
f 28//19 36//19 27//19
f 27//20 36//20 25//20
